<svg width="200" height="200" viewBox="0 0 200 200" fill="none" xmlns="http://www.w3.org/2000/svg">
  <!-- 고양이 몸통 -->
  <ellipse cx="100" cy="120" rx="45" ry="55" fill="#FF9800"/>

  <!-- 고양이 머리 -->
  <circle cx="100" cy="70" r="35" fill="#FF9800"/>

  <!-- 왼쪽 귀 -->
  <path d="M 75 45 L 65 20 L 85 40 Z" fill="#FF9800"/>
  <path d="M 75 45 L 68 28 L 82 42 Z" fill="#FFB74D"/>

  <!-- 오른쪽 귀 -->
  <path d="M 125 45 L 135 20 L 115 40 Z" fill="#FF9800"/>
  <path d="M 125 45 L 132 28 L 118 42 Z" fill="#FFB74D"/>

  <!-- 왼쪽 눈 -->
  <ellipse cx="88" cy="68" rx="6" ry="10" fill="#000"/>
  <ellipse cx="89" cy="65" rx="2" ry="3" fill="#FFF"/>

  <!-- 오른쪽 눈 -->
  <ellipse cx="112" cy="68" rx="6" ry="10" fill="#000"/>
  <ellipse cx="113" cy="65" rx="2" ry="3" fill="#FFF"/>

  <!-- 코 -->
  <path d="M 100 78 L 97 82 L 103 82 Z" fill="#F06292"/>

  <!-- 입 -->
  <path d="M 100 82 Q 95 87 90 85" stroke="#000" stroke-width="2" fill="none" stroke-linecap="round"/>
  <path d="M 100 82 Q 105 87 110 85" stroke="#000" stroke-width="2" fill="none" stroke-linecap="round"/>

  <!-- 수염 왼쪽 -->
  <line x1="65" y1="75" x2="45" y2="72" stroke="#000" stroke-width="1.5"/>
  <line x1="65" y1="80" x2="45" y2="80" stroke="#000" stroke-width="1.5"/>
  <line x1="65" y1="85" x2="45" y2="88" stroke="#000" stroke-width="1.5"/>

  <!-- 수염 오른쪽 -->
  <line x1="135" y1="75" x2="155" y2="72" stroke="#000" stroke-width="1.5"/>
  <line x1="135" y1="80" x2="155" y2="80" stroke="#000" stroke-width="1.5"/>
  <line x1="135" y1="85" x2="155" y2="88" stroke="#000" stroke-width="1.5"/>

  <!-- 배 -->
  <ellipse cx="100" cy="130" rx="30" ry="35" fill="#FFE0B2"/>

  <!-- 왼쪽 앞발 -->
  <ellipse cx="80" cy="165" rx="10" ry="18" fill="#FF9800"/>
  <ellipse cx="80" cy="180" rx="8" ry="6" fill="#FFB74D"/>

  <!-- 오른쪽 앞발 -->
  <ellipse cx="120" cy="165" rx="10" ry="18" fill="#FF9800"/>
  <ellipse cx="120" cy="180" rx="8" ry="6" fill="#FFB74D"/>

  <!-- 꼬리 -->
  <path d="M 140 130 Q 165 120 170 95 Q 173 80 165 70" stroke="#FF9800" stroke-width="15" fill="none" stroke-linecap="round"/>
</svg>
